<?xml version="1.0" encoding="UTF-8" standalone="no"?>
<svg
   version="1.1"
   id="Layer_1"
   x="0px"
   y="0px"
   viewBox="0 0 50.3 50.3"
   style="enable-background:new 0 0 50.3 50.3;"
   xml:space="preserve"
   sodipodi:docname="idPa2iIaYs_1759505975374.svg"
   inkscape:version="1.4.2 (ebf0e940d0, 2025-05-08)"
   xmlns:inkscape="http://www.inkscape.org/namespaces/inkscape"
   xmlns:sodipodi="http://sodipodi.sourceforge.net/DTD/sodipodi-0.dtd"
   xmlns="http://www.w3.org/2000/svg"
   xmlns:svg="http://www.w3.org/2000/svg"><defs
   id="defs1" /><sodipodi:namedview
   id="namedview1"
   pagecolor="#ffffff"
   bordercolor="#000000"
   borderopacity="0.25"
   inkscape:showpageshadow="2"
   inkscape:pageopacity="0.0"
   inkscape:pagecheckerboard="0"
   inkscape:deskcolor="#d1d1d1"
   inkscape:zoom="21.231112"
   inkscape:cx="-4.5216662"
   inkscape:cy="18.722524"
   inkscape:window-width="1536"
   inkscape:window-height="834"
   inkscape:window-x="0"
   inkscape:window-y="0"
   inkscape:window-maximized="1"
   inkscape:current-layer="Layer_1" />
 <style
   type="text/css"
   id="style1">
  .st0{fill-rule:evenodd;clip-rule:evenodd;}
 </style>
 <ellipse
   style="fill:#ffffff;stroke-width:1.01838"
   id="path5"
   ry="11.749324"
   rx="25.107477"
   cy="11.749324"
   cx="24.989189" /><g
   id="g1">
  <path
   class="st0"
   d="M25.1,0C12,0,1.2,4.7,0,10.6l14,2.6c1.1-0.4,2.4-0.5,3.8-0.5l6.6-3.9c-0.1-1,0.5-2,1.8-2.8   C28.1,4.8,31,4.1,34,4.1c2,0,4.1,0.3,5.9,0.9c4.4,1.5,5.4,4.4,2.2,6.4c-2,1.3-5.2,2-8.4,1.9l-8.6,3.1c-0.1,0.6-0.5,1.2-1.3,1.8   c-2.3,1.5-6.8,1.8-10.1,0.7c-1.4-0.5-2.4-1.2-2.7-1.9L1,15.1c0.9,1.4,2.4,2.7,4.2,3.8C2,20.8,0,23.2,0,25.7c0,2.5,1.9,4.8,5.1,6.7   C1.9,34.3,0,36.6,0,39.1c0,6.2,11.2,11.2,25.1,11.2c13.9,0,25.1-5,25.1-11.2c0-2.5-1.9-4.8-5.1-6.7c3.2-1.9,5.1-4.2,5.1-6.7   c0-2.6-2-4.9-5.3-6.8c3.3-2,5.2-4.5,5.2-7.1C50.2,5.3,39,0,25.1,0z M34.1,5.6c-2,0-4,0.5-5.3,1.3c-2.2,1.4-1.5,3.3,1.5,4.4   s7.1,0.7,9.3-0.7c2.2-1.4,1.5-3.3-1.5-4.3C36.8,5.8,35.4,5.6,34.1,5.6L34.1,5.6z M34.2,6.2c2.9,0,5.2,1.1,5.2,2.4s-2.3,2.4-5.2,2.4   S29,10,29,8.7S31.3,6.2,34.2,6.2z M17.8,13.5c-0.6,0-1.2,0.1-1.8,0.2l3.6,0.7c2.2,0.4,3.2,1.6,2.4,2.6c-0.9,1-3.4,1.5-5.5,1.1   l-3.5-0.7c0.4,0.4,0.9,0.7,1.7,0.9c2.5,0.9,6,0.6,7.9-0.6c1.8-1.2,1.3-2.8-1.3-3.7C20.2,13.7,18.9,13.5,17.8,13.5z M42.8,20v3.7   c0,4.3-7.9,7.8-17.7,7.8c-9.8,0-17.7-3.5-17.7-7.8v-3.6c4.5,2.1,10.8,3.4,17.6,3.4C32,23.5,38.3,22.2,42.8,20L42.8,20z M42.8,33.6   v3.5c0,4.3-7.9,7.8-17.7,7.8c-9.8,0-17.7-3.5-17.7-7.8v-3.5c4.6,2,10.8,3.2,17.7,3.2S38.3,35.6,42.8,33.6z"
   id="path1">
  </path>
 </g>
<path
   style="fill:#ffffff;stroke-width:0.0527485"
   d="M 23.322896,31.433104 C 18.091525,31.194672 13.318958,29.927797 10.428803,28.010374 8.9277193,27.014506 8.0230291,25.989236 7.6120133,24.818153 l -0.1481054,-0.421987 -0.015928,-2.118537 -0.015928,-2.118537 0.780781,0.330593 c 6.1315091,2.596159 14.5222191,3.602189 22.6450211,2.715093 4.193405,-0.457964 7.995269,-1.412877 11.109107,-2.790271 l 0.812046,-0.359205 v 1.94161 c 0,1.447957 -0.01883,2.040023 -0.07406,2.328678 -0.535375,2.798017 -4.448079,5.260439 -10.211889,6.426752 -2.922706,0.591413 -6.04497,0.823199 -9.170159,0.680762 z"
   id="path3" /><path
   style="fill:#ffffff;stroke-width:0.0527485"
   d="M 23.299262,44.833493 C 16.181641,44.498987 10.147572,42.291744 8.1639534,39.297048 7.8161399,38.771949 7.6766986,38.467456 7.5383301,37.930896 7.4480013,37.580623 7.4375337,37.338308 7.4375337,35.597547 v -1.942486 l 0.2769295,0.112707 c 4.9458988,2.012922 10.8579198,3.051266 17.3674328,3.050288 6.720168,-10e-4 12.914426,-1.106947 17.635052,-3.148604 0.05743,-0.02484 0.06633,0.33367 0.05016,2.020941 -0.01892,1.975252 -0.02417,2.064795 -0.141805,2.420374 -0.341909,1.033502 -1.052456,1.953605 -2.185663,2.830264 -3.444436,2.664647 -10.272422,4.215236 -17.140382,3.892462 z"
   id="path4" /></svg>
